<svg width="16" height="24" xmlns="http://www.w3.org/2000/svg"><rect x="6" y="5" width="1" height="1" style="fill:rgb(0,0,0)" /><rect x="7" y="5" width="1" height="1" style="fill:rgb(0,0,0)" /><rect x="8" y="5" width="1" height="1" style="fill:rgb(0,0,0)" /><rect x="9" y="5" width="1" height="1" style="fill:rgb(0,0,0)" /><rect x="4" y="6" width="1" height="1" style="fill:rgb(0,0,0)" /><rect x="5" y="6" width="1" height="1" style="fill:rgb(0,0,0)" /><rect x="6" y="6" width="1" height="1" style="fill:rgb(64,56,96)" /><rect x="7" y="6" width="1" height="1" style="fill:rgb(104,80,184)" /><rect x="8" y="6" width="1" height="1" style="fill:rgb(104,80,184)" /><rect x="9" y="6" width="1" height="1" style="fill:rgb(64,56,96)" /><rect x="10" y="6" width="1" height="1" style="fill:rgb(0,0,0)" /><rect x="11" y="6" width="1" height="1" style="fill:rgb(0,0,0)" /><rect x="3" y="7" width="1" height="1" style="fill:rgb(0,0,0)" /><rect x="4" y="7" width="1" height="1" style="fill:rgb(64,56,96)" /><rect x="5" y="7" width="1" height="1" style="fill:rgb(104,80,184)" /><rect x="6" y="7" width="1" height="1" style="fill:rgb(64,56,96)" /><rect x="7" y="7" width="1" height="1" style="fill:rgb(64,56,96)" /><rect x="8" y="7" width="1" height="1" style="fill:rgb(64,56,96)" /><rect x="9" y="7" width="1" height="1" style="fill:rgb(64,56,96)" /><rect x="10" y="7" width="1" height="1" style="fill:rgb(104,80,184)" /><rect x="11" y="7" width="1" height="1" style="fill:rgb(0,0,0)" /><rect x="12" y="7" width="1" height="1" style="fill:rgb(0,0,0)" /><rect x="3" y="8" width="1" height="1" style="fill:rgb(0,0,0)" /><rect x="4" y="8" width="1" height="1" style="fill:rgb(104,80,184)" /><rect x="5" y="8" width="1" height="1" style="fill:rgb(64,56,96)" /><rect x="6" y="8" width="1" height="1" style="fill:rgb(64,56,96)" /><rect x="7" y="8" width="1" height="1" style="fill:rgb(64,56,96)" /><rect x="8" y="8" width="1" height="1" style="fill:rgb(64,56,96)" /><rect x="9" y="8" width="1" height="1" style="fill:rgb(64,56,96)" /><rect x="10" y="8" width="1" height="1" style="fill:rgb(64,56,96)" /><rect x="11" y="8" width="1" height="1" style="fill:rgb(104,80,184)" /><rect x="12" y="8" width="1" height="1" style="fill:rgb(0,0,0)" /><rect x="2" y="9" width="1" height="1" style="fill:rgb(0,0,0)" /><rect x="3" y="9" width="1" height="1" style="fill:rgb(64,56,96)" /><rect x="4" y="9" width="1" height="1" style="fill:rgb(104,80,184)" /><rect x="5" y="9" width="1" height="1" style="fill:rgb(104,80,184)" /><rect x="6" y="9" width="1" height="1" style="fill:rgb(64,56,96)" /><rect x="7" y="9" width="1" height="1" style="fill:rgb(64,56,96)" /><rect x="8" y="9" width="1" height="1" style="fill:rgb(64,56,96)" /><rect x="9" y="9" width="1" height="1" style="fill:rgb(64,56,96)" /><rect x="10" y="9" width="1" height="1" style="fill:rgb(104,80,184)" /><rect x="11" y="9" width="1" height="1" style="fill:rgb(104,80,184)" /><rect x="12" y="9" width="1" height="1" style="fill:rgb(64,56,96)" /><rect x="13" y="9" width="1" height="1" style="fill:rgb(0,0,0)" /><rect x="2" y="10" width="1" height="1" style="fill:rgb(0,0,0)" /><rect x="3" y="10" width="1" height="1" style="fill:rgb(64,56,96)" /><rect x="4" y="10" width="1" height="1" style="fill:rgb(64,56,96)" /><rect x="5" y="10" width="1" height="1" style="fill:rgb(104,80,184)" /><rect x="6" y="10" width="1" height="1" style="fill:rgb(104,80,184)" /><rect x="7" y="10" width="1" height="1" style="fill:rgb(64,56,96)" /><rect x="8" y="10" width="1" height="1" style="fill:rgb(64,56,96)" /><rect x="9" y="10" width="1" height="1" style="fill:rgb(104,80,184)" /><rect x="10" y="10" width="1" height="1" style="fill:rgb(104,80,184)" /><rect x="11" y="10" width="1" height="1" style="fill:rgb(64,56,96)" /><rect x="12" y="10" width="1" height="1" style="fill:rgb(64,56,96)" /><rect x="13" y="10" width="1" height="1" style="fill:rgb(0,0,0)" /><rect x="1" y="11" width="1" height="1" style="fill:rgb(120,64,64)" /><rect x="2" y="11" width="1" height="1" style="fill:rgb(216,152,112)" /><rect x="3" y="11" width="1" height="1" style="fill:rgb(64,56,96)" /><rect x="4" y="11" width="1" height="1" style="fill:rgb(64,56,96)" /><rect x="5" y="11" width="1" height="1" style="fill:rgb(64,56,96)" /><rect x="6" y="11" width="1" height="1" style="fill:rgb(64,56,96)" /><rect x="7" y="11" width="1" height="1" style="fill:rgb(64,56,96)" /><rect x="8" y="11" width="1" height="1" style="fill:rgb(64,56,96)" /><rect x="9" y="11" width="1" height="1" style="fill:rgb(64,56,96)" /><rect x="10" y="11" width="1" height="1" style="fill:rgb(64,56,96)" /><rect x="11" y="11" width="1" height="1" style="fill:rgb(64,56,96)" /><rect x="12" y="11" width="1" height="1" style="fill:rgb(64,56,96)" /><rect x="13" y="11" width="1" height="1" style="fill:rgb(240,192,152)" /><rect x="14" y="11" width="1" height="1" style="fill:rgb(120,64,64)" /><rect x="1" y="12" width="1" height="1" style="fill:rgb(120,64,64)" /><rect x="2" y="12" width="1" height="1" style="fill:rgb(216,152,112)" /><rect x="3" y="12" width="1" height="1" style="fill:rgb(0,0,0)" /><rect x="4" y="12" width="1" height="1" style="fill:rgb(64,56,96)" /><rect x="5" y="12" width="1" height="1" style="fill:rgb(64,56,96)" /><rect x="6" y="12" width="1" height="1" style="fill:rgb(64,56,96)" /><rect x="7" y="12" width="1" height="1" style="fill:rgb(64,56,96)" /><rect x="8" y="12" width="1" height="1" style="fill:rgb(64,56,96)" /><rect x="9" y="12" width="1" height="1" style="fill:rgb(64,56,96)" /><rect x="10" y="12" width="1" height="1" style="fill:rgb(64,56,96)" /><rect x="11" y="12" width="1" height="1" style="fill:rgb(64,56,96)" /><rect x="12" y="12" width="1" height="1" style="fill:rgb(0,0,0)" /><rect x="13" y="12" width="1" height="1" style="fill:rgb(216,152,112)" /><rect x="14" y="12" width="1" height="1" style="fill:rgb(120,64,64)" /><rect x="1" y="13" width="1" height="1" style="fill:rgb(0,0,0)" /><rect x="2" y="13" width="1" height="1" style="fill:rgb(64,56,96)" /><rect x="3" y="13" width="1" height="1" style="fill:rgb(0,0,0)" /><rect x="4" y="13" width="1" height="1" style="fill:rgb(0,0,0)" /><rect x="5" y="13" width="1" height="1" style="fill:rgb(64,56,96)" /><rect x="6" y="13" width="1" height="1" style="fill:rgb(64,56,96)" /><rect x="7" y="13" width="1" height="1" style="fill:rgb(72,48,48)" /><rect x="8" y="13" width="1" height="1" style="fill:rgb(72,48,48)" /><rect x="9" y="13" width="1" height="1" style="fill:rgb(64,56,96)" /><rect x="10" y="13" width="1" height="1" style="fill:rgb(64,56,96)" /><rect x="11" y="13" width="1" height="1" style="fill:rgb(0,0,0)" /><rect x="12" y="13" width="1" height="1" style="fill:rgb(0,0,0)" /><rect x="13" y="13" width="1" height="1" style="fill:rgb(64,56,96)" /><rect x="14" y="13" width="1" height="1" style="fill:rgb(0,0,0)" /><rect x="0" y="14" width="1" height="1" style="fill:rgb(0,0,0)" /><rect x="1" y="14" width="1" height="1" style="fill:rgb(64,56,96)" /><rect x="2" y="14" width="1" height="1" style="fill:rgb(64,56,96)" /><rect x="3" y="14" width="1" height="1" style="fill:rgb(64,56,96)" /><rect x="4" y="14" width="1" height="1" style="fill:rgb(0,0,0)" /><rect x="5" y="14" width="1" height="1" style="fill:rgb(0,0,0)" /><rect x="6" y="14" width="1" height="1" style="fill:rgb(72,48,48)" /><rect x="7" y="14" width="1" height="1" style="fill:rgb(208,176,40)" /><rect x="8" y="14" width="1" height="1" style="fill:rgb(208,176,40)" /><rect x="9" y="14" width="1" height="1" style="fill:rgb(72,48,48)" /><rect x="10" y="14" width="1" height="1" style="fill:rgb(0,0,0)" /><rect x="11" y="14" width="1" height="1" style="fill:rgb(0,0,0)" /><rect x="12" y="14" width="1" height="1" style="fill:rgb(64,56,96)" /><rect x="13" y="14" width="1" height="1" style="fill:rgb(64,56,96)" /><rect x="14" y="14" width="1" height="1" style="fill:rgb(64,56,96)" /><rect x="15" y="14" width="1" height="1" style="fill:rgb(0,0,0)" /><rect x="0" y="15" width="1" height="1" style="fill:rgb(0,0,0)" /><rect x="1" y="15" width="1" height="1" style="fill:rgb(64,56,96)" /><rect x="2" y="15" width="1" height="1" style="fill:rgb(104,80,184)" /><rect x="3" y="15" width="1" height="1" style="fill:rgb(64,56,96)" /><rect x="4" y="15" width="1" height="1" style="fill:rgb(64,56,96)" /><rect x="5" y="15" width="1" height="1" style="fill:rgb(64,56,96)" /><rect x="6" y="15" width="1" height="1" style="fill:rgb(64,56,96)" /><rect x="7" y="15" width="1" height="1" style="fill:rgb(72,48,48)" /><rect x="8" y="15" width="1" height="1" style="fill:rgb(72,48,48)" /><rect x="9" y="15" width="1" height="1" style="fill:rgb(64,56,96)" /><rect x="10" y="15" width="1" height="1" style="fill:rgb(64,56,96)" /><rect x="11" y="15" width="1" height="1" style="fill:rgb(64,56,96)" /><rect x="12" y="15" width="1" height="1" style="fill:rgb(64,56,96)" /><rect x="13" y="15" width="1" height="1" style="fill:rgb(104,80,184)" /><rect x="14" y="15" width="1" height="1" style="fill:rgb(64,56,96)" /><rect x="15" y="15" width="1" height="1" style="fill:rgb(0,0,0)" /><rect x="0" y="16" width="1" height="1" style="fill:rgb(0,0,0)" /><rect x="1" y="16" width="1" height="1" style="fill:rgb(64,56,96)" /><rect x="2" y="16" width="1" height="1" style="fill:rgb(64,56,96)" /><rect x="3" y="16" width="1" height="1" style="fill:rgb(104,80,184)" /><rect x="4" y="16" width="1" height="1" style="fill:rgb(104,80,184)" /><rect x="5" y="16" width="1" height="1" style="fill:rgb(104,80,184)" /><rect x="6" y="16" width="1" height="1" style="fill:rgb(64,56,96)" /><rect x="7" y="16" width="1" height="1" style="fill:rgb(64,56,96)" /><rect x="8" y="16" width="1" height="1" style="fill:rgb(64,56,96)" /><rect x="9" y="16" width="1" height="1" style="fill:rgb(64,56,96)" /><rect x="10" y="16" width="1" height="1" style="fill:rgb(104,80,184)" /><rect x="11" y="16" width="1" height="1" style="fill:rgb(104,80,184)" /><rect x="12" y="16" width="1" height="1" style="fill:rgb(104,80,184)" /><rect x="13" y="16" width="1" height="1" style="fill:rgb(64,56,96)" /><rect x="14" y="16" width="1" height="1" style="fill:rgb(64,56,96)" /><rect x="15" y="16" width="1" height="1" style="fill:rgb(0,0,0)" /><rect x="1" y="17" width="1" height="1" style="fill:rgb(0,0,0)" /><rect x="2" y="17" width="1" height="1" style="fill:rgb(64,56,96)" /><rect x="3" y="17" width="1" height="1" style="fill:rgb(64,56,96)" /><rect x="4" y="17" width="1" height="1" style="fill:rgb(64,56,96)" /><rect x="5" y="17" width="1" height="1" style="fill:rgb(104,80,184)" /><rect x="6" y="17" width="1" height="1" style="fill:rgb(104,80,184)" /><rect x="7" y="17" width="1" height="1" style="fill:rgb(104,80,184)" /><rect x="8" y="17" width="1" height="1" style="fill:rgb(104,80,184)" /><rect x="9" y="17" width="1" height="1" style="fill:rgb(104,80,184)" /><rect x="10" y="17" width="1" height="1" style="fill:rgb(104,80,184)" /><rect x="11" y="17" width="1" height="1" style="fill:rgb(64,56,96)" /><rect x="12" y="17" width="1" height="1" style="fill:rgb(64,56,96)" /><rect x="13" y="17" width="1" height="1" style="fill:rgb(64,56,96)" /><rect x="14" y="17" width="1" height="1" style="fill:rgb(0,0,0)" /><rect x="2" y="18" width="1" height="1" style="fill:rgb(0,0,0)" /><rect x="3" y="18" width="1" height="1" style="fill:rgb(0,0,0)" /><rect x="4" y="18" width="1" height="1" style="fill:rgb(0,0,0)" /><rect x="5" y="18" width="1" height="1" style="fill:rgb(64,56,96)" /><rect x="6" y="18" width="1" height="1" style="fill:rgb(64,56,96)" /><rect x="7" y="18" width="1" height="1" style="fill:rgb(64,56,96)" /><rect x="8" y="18" width="1" height="1" style="fill:rgb(64,56,96)" /><rect x="9" y="18" width="1" height="1" style="fill:rgb(64,56,96)" /><rect x="10" y="18" width="1" height="1" style="fill:rgb(64,56,96)" /><rect x="11" y="18" width="1" height="1" style="fill:rgb(0,0,0)" /><rect x="12" y="18" width="1" height="1" style="fill:rgb(0,0,0)" /><rect x="13" y="18" width="1" height="1" style="fill:rgb(0,0,0)" /><rect x="2" y="19" width="1" height="1" style="fill:rgb(120,64,64)" /><rect x="3" y="19" width="1" height="1" style="fill:rgb(216,152,112)" /><rect x="4" y="19" width="1" height="1" style="fill:rgb(120,64,64)" /><rect x="5" y="19" width="1" height="1" style="fill:rgb(0,0,0)" /><rect x="6" y="19" width="1" height="1" style="fill:rgb(0,0,0)" /><rect x="7" y="19" width="1" height="1" style="fill:rgb(0,0,0)" /><rect x="8" y="19" width="1" height="1" style="fill:rgb(0,0,0)" /><rect x="9" y="19" width="1" height="1" style="fill:rgb(0,0,0)" /><rect x="10" y="19" width="1" height="1" style="fill:rgb(0,0,0)" /><rect x="11" y="19" width="1" height="1" style="fill:rgb(168,64,56)" /><rect x="12" y="19" width="1" height="1" style="fill:rgb(72,48,48)" /><rect x="2" y="20" width="1" height="1" style="fill:rgb(120,64,64)" /><rect x="3" y="20" width="1" height="1" style="fill:rgb(216,152,112)" /><rect x="4" y="20" width="1" height="1" style="fill:rgb(168,64,56)" /><rect x="5" y="20" width="1" height="1" style="fill:rgb(232,120,64)" /><rect x="6" y="20" width="1" height="1" style="fill:rgb(232,120,64)" /><rect x="7" y="20" width="1" height="1" style="fill:rgb(255,255,255)" /><rect x="8" y="20" width="1" height="1" style="fill:rgb(255,255,255)" /><rect x="9" y="20" width="1" height="1" style="fill:rgb(232,120,64)" /><rect x="10" y="20" width="1" height="1" style="fill:rgb(232,120,64)" /><rect x="11" y="20" width="1" height="1" style="fill:rgb(168,64,56)" /><rect x="12" y="20" width="1" height="1" style="fill:rgb(72,48,48)" /><rect x="3" y="21" width="1" height="1" style="fill:rgb(72,48,48)" /><rect x="4" y="21" width="1" height="1" style="fill:rgb(168,64,56)" /><rect x="5" y="21" width="1" height="1" style="fill:rgb(168,64,56)" /><rect x="6" y="21" width="1" height="1" style="fill:rgb(255,255,255)" /><rect x="7" y="21" width="1" height="1" style="fill:rgb(232,120,64)" /><rect x="8" y="21" width="1" height="1" style="fill:rgb(232,120,64)" /><rect x="9" y="21" width="1" height="1" style="fill:rgb(255,255,255)" /><rect x="10" y="21" width="1" height="1" style="fill:rgb(168,64,56)" /><rect x="11" y="21" width="1" height="1" style="fill:rgb(168,64,56)" /><rect x="12" y="21" width="1" height="1" style="fill:rgb(72,48,48)" /><rect x="4" y="22" width="1" height="1" style="fill:rgb(72,48,48)" /><rect x="5" y="22" width="1" height="1" style="fill:rgb(72,48,48)" /><rect x="6" y="22" width="1" height="1" style="fill:rgb(168,64,56)" /><rect x="7" y="22" width="1" height="1" style="fill:rgb(168,64,56)" /><rect x="8" y="22" width="1" height="1" style="fill:rgb(168,64,56)" /><rect x="9" y="22" width="1" height="1" style="fill:rgb(168,64,56)" /><rect x="10" y="22" width="1" height="1" style="fill:rgb(168,64,56)" /><rect x="11" y="22" width="1" height="1" style="fill:rgb(72,48,48)" /><rect x="6" y="23" width="1" height="1" style="fill:rgb(0,0,0)" /><rect x="7" y="23" width="1" height="1" style="fill:rgb(0,0,0)" /><rect x="8" y="23" width="1" height="1" style="fill:rgb(208,176,40)" /><rect x="9" y="23" width="1" height="1" style="fill:rgb(208,176,40)" /><rect x="10" y="23" width="1" height="1" style="fill:rgb(0,0,0)" /></svg>